<svg id="Layer_1" height="512" viewBox="0 0 512 512" width="512" xmlns="http://www.w3.org/2000/svg"><g><g><g><path d="m272 96h32v32h-32z" fill="#a5c3dc"/></g><g><path d="m304 128h8c4.418 0 8-3.582 8-8v-16c0-4.418-3.582-8-8-8h-8z" fill="#23aae6"/></g><g><path d="m272 96h32v16h-32z" fill="#d7e6f0"/></g><g><path d="m304 112h16v-8c0-4.418-3.582-8-8-8h-8z" fill="#5ad7ff"/></g></g><g><g><path d="m304 160h32v32h-32z" fill="#a5c3dc"/></g><g><path d="m336 192h8c4.418 0 8-3.582 8-8v-16c0-4.418-3.582-8-8-8h-8z" fill="#23aae6"/></g><g><path d="m304 160h32v16h-32z" fill="#d7e6f0"/></g><g><path d="m336 176h16v-8c0-4.418-3.582-8-8-8h-8z" fill="#5ad7ff"/></g></g><g><g><path d="m272 384h32v32h-32z" fill="#a5c3dc"/></g><g><path d="m304 416h8c4.418 0 8-3.582 8-8v-16c0-4.418-3.582-8-8-8h-8z" fill="#23aae6"/></g><g><path d="m272 384h32v16h-32z" fill="#d7e6f0"/></g><g><path d="m304 400h16v-8c0-4.418-3.582-8-8-8h-8z" fill="#5ad7ff"/></g></g><g><g><path d="m304 320h32v32h-32z" fill="#a5c3dc"/></g><g><path d="m336 352h8c4.418 0 8-3.582 8-8v-16c0-4.418-3.582-8-8-8h-8z" fill="#23aae6"/></g><g><path d="m304 320h32v16h-32z" fill="#d7e6f0"/></g><g><path d="m336 336h16v-8c0-4.418-3.582-8-8-8h-8z" fill="#5ad7ff"/></g></g><path d="m359.208 252.53-104-216c-1.333-2.77-4.135-4.53-7.208-4.53h-32c-2.326 0-4.537 1.013-6.058 2.774-1.52 1.761-2.197 4.097-1.856 6.398l31.826 214.828-31.826 214.828c-.341 2.301.337 4.637 1.856 6.398 1.521 1.761 3.731 2.774 6.058 2.774h32c3.073 0 5.875-1.76 7.208-4.53l104-216c.53-1.1.792-2.287.792-3.47s-.262-2.37-.792-3.47z" fill="#f06423"/><path d="m141.92 250.619-80-88c-1.517-1.668-3.666-2.619-5.92-2.619h-32c-2.609 0-5.056 1.273-6.553 3.41s-1.857 4.871-.966 7.323l31.006 85.267-31.006 85.266c-.892 2.453-.531 5.186.966 7.323s3.944 3.411 6.553 3.411h32c2.254 0 4.403-.951 5.92-2.619l80-88c1.365-1.502 2.08-3.429 2.08-5.381 0-1.953-.715-3.88-2.08-5.381z" fill="#f06423"/><path d="m255.914 254.828-.003-.018c-.004-.025-.007-.05-.011-.076l-30.628-206.734h22.728c4.418 0 8-3.582 8-8s-3.582-8-8-8h-32c-2.326 0-4.537 1.013-6.058 2.774-1.52 1.761-2.197 4.097-1.856 6.398l31.826 214.828-31.826 214.828c-.647 4.371 2.371 8.438 6.741 9.086.397.059.793.087 1.183.087 3.899 0 7.315-2.855 7.904-6.829l32-216c.118-.798.111-1.585 0-2.344z" fill="#faa019"/><path d="m63.519 253.266-28.097-77.266h20.578c4.418 0 8-3.582 8-8s-3.582-8-8-8h-32c-2.609 0-5.056 1.273-6.553 3.41s-1.857 4.871-.966 7.323l31.006 85.267-31.006 85.266c-1.51 4.152.633 8.742 4.784 10.252.903.328 1.826.484 2.733.484 3.27 0 6.338-2.019 7.52-5.268l32-88c.668-1.838.618-3.761-.002-5.466.001-.001.002-.001.003-.002z" fill="#faa019"/><g><path d="m80 288h384c17.673 0 32-14.327 32-32 0-17.673-14.327-32-32-32h-384c-17.673 0-32 14.327-32 32 0 17.673 14.327 32 32 32z" fill="#a5c3dc"/></g><g><path d="m464 256h-384c-8.837 0-16-7.163-16-16 0-8.837 7.163-16 16-16h384c8.837 0 16 7.163 16 16 0 8.837-7.163 16-16 16z" fill="#d7e6f0"/></g><g><path d="m136 264h-112c-4.418 0-8-3.582-8-8 0-4.418 3.582-8 8-8h112c4.418 0 8 3.582 8 8 0 4.418-3.582 8-8 8z" fill="#f06423"/></g></g></svg>